<svg width="183" height="48" viewBox="0 0 183 48" fill="none" xmlns="http://www.w3.org/2000/svg">
<path d="M175.48 48H7.05566C3.15899 48 0 45.2686 0 41.8988V6.10124C0 2.73202 3.15899 -3.72529e-08 7.05566 -3.72529e-08H175.48C179.376 -3.72529e-08 182.535 2.73202 182.535 6.10124V41.8988C182.535 45.2686 179.376 48 175.48 48Z" fill="#2A2A2A"/>
<path d="M21.5591 19.6117C18.9985 24.0545 20.6263 30.7975 23.4576 34.8857C24.871 36.9301 26.3019 38.7651 28.2618 38.7651C28.2986 38.7651 28.3357 38.7645 28.3735 38.7625C29.2944 38.7259 29.9599 38.442 30.603 38.1685C31.3253 37.8604 32.0728 37.5424 33.2445 37.5424C34.3591 37.5424 35.0706 37.8505 35.7582 38.1476C36.4367 38.4413 37.1348 38.7449 38.1667 38.7252C40.3742 38.6847 41.7298 36.7044 42.9257 34.9576C44.1738 33.1343 44.7997 31.364 45.0109 30.6869L45.0193 30.6601C45.0596 30.5397 45.0025 30.4089 44.8872 30.3559C44.8872 30.3559 44.8725 30.3493 44.8694 30.348C44.4806 30.1891 41.0702 28.6759 41.0345 24.553C41.0012 21.2028 43.5926 19.4286 44.1125 19.1073L44.1366 19.0916C44.193 19.0557 44.2322 18.9981 44.2455 18.9327C44.2589 18.8673 44.2452 18.7986 44.207 18.7436C42.4184 16.1254 39.6768 15.7316 38.5727 15.6839C38.413 15.6681 38.2476 15.6596 38.0816 15.6596C36.7852 15.6596 35.5431 16.149 34.5452 16.5428C33.8565 16.815 33.2614 17.0492 32.8515 17.0492C32.3902 17.0492 31.7919 16.8117 31.0994 16.5369C30.1726 16.1693 29.1224 15.7525 28.011 15.7525C27.9843 15.7525 27.9584 15.7525 27.9329 15.7532C25.3477 15.7911 22.9052 17.2703 21.5591 19.6117Z" fill="white"/>
<path d="M38.5753 8.47858C37.0102 8.54204 35.1324 9.5057 34.0104 10.82C33.0562 11.925 32.1249 13.7672 32.3701 15.6239C32.3854 15.7403 32.4804 15.83 32.597 15.8391C32.7028 15.847 32.8104 15.8516 32.9179 15.8516C34.4482 15.8516 36.0995 15.0044 37.2271 13.641C38.4138 12.2017 39.0139 10.3542 38.8324 8.69905C38.8181 8.56952 38.7039 8.47269 38.5753 8.47858Z" fill="white"/>
<path d="M59.5107 15.3589C60.2035 15.3589 60.8145 15.2209 61.3431 14.9461C61.8718 14.6714 62.2787 14.2873 62.5646 13.7941C62.8505 13.3014 62.9931 12.7369 62.9931 12.101C62.9931 11.4657 62.8505 10.9011 62.5646 10.4079C62.2787 9.91523 61.8718 9.53121 61.3431 9.25644C60.8145 8.98102 60.2035 8.84363 59.5107 8.84363H57.1319V15.3589H59.5107ZM56.5854 8.35101H59.5539C60.3324 8.35101 61.0232 8.51129 61.6271 8.83316C62.2309 9.15438 62.7 9.59925 63.0363 10.1671C63.3719 10.735 63.54 11.3794 63.54 12.101C63.54 12.8226 63.3719 13.4676 63.0363 14.0355C62.7 14.6033 62.2309 15.0482 61.6271 15.3694C61.0232 15.6906 60.3324 15.8516 59.5539 15.8516H56.5854V8.35101Z" fill="white"/>
<path d="M68.6023 15.1131C68.9412 14.9129 69.2094 14.6342 69.4056 14.277C69.6019 13.9198 69.7007 13.5129 69.7007 13.0556C69.7007 12.5983 69.6019 12.1914 69.4056 11.8342C69.2094 11.477 68.9412 11.1983 68.6023 10.9981C68.2627 10.7985 67.8787 10.6984 67.4502 10.6984C67.0217 10.6984 66.6377 10.7985 66.2981 10.9981C65.9586 11.1983 65.691 11.477 65.4948 11.8342C65.2978 12.1914 65.1997 12.5983 65.1997 13.0556C65.1997 13.5129 65.2978 13.9198 65.4948 14.277C65.691 14.6342 65.9586 14.9129 66.2981 15.1131C66.6377 15.3133 67.0217 15.4127 67.4502 15.4127C67.8787 15.4127 68.2627 15.3133 68.6023 15.1131ZM66.0194 15.5311C65.5949 15.2884 65.2606 14.9508 65.0178 14.5184C64.7751 14.086 64.6534 13.5986 64.6534 13.0556C64.6534 12.5126 64.7751 12.0252 65.0178 11.5928C65.2606 11.161 65.5949 10.8234 66.0194 10.58C66.4447 10.3373 66.9216 10.2156 67.4502 10.2156C67.9788 10.2156 68.4557 10.3373 68.881 10.58C69.3056 10.8234 69.6399 11.161 69.8826 11.5928C70.1253 12.0252 70.247 12.5126 70.247 13.0556C70.247 13.5986 70.1253 14.086 69.8826 14.5184C69.6399 14.9508 69.3056 15.2884 68.881 15.5311C68.4557 15.7738 67.9788 15.8955 67.4502 15.8955C66.9216 15.8955 66.4447 15.7738 66.0194 15.5311Z" fill="white"/>
<path d="M79.7411 10.258L77.6195 15.8516H77.1158L75.2297 10.9973L73.3331 15.8516H72.8405L70.7189 10.258H71.2331L73.0976 15.2516L75.0046 10.258H75.4658L77.3624 15.2405L79.2478 10.258H79.7411Z" fill="white"/>
<path d="M85.3772 10.8259C85.7847 11.2335 85.9882 11.819 85.9882 12.5831V15.8516H85.4524V12.6263C85.4524 11.9976 85.2934 11.5187 84.9755 11.1903C84.6575 10.8619 84.2127 10.6977 83.6415 10.6977C82.9841 10.6977 82.4666 10.8939 82.0878 11.2865C81.709 11.6796 81.5199 12.2082 81.5199 12.8729V15.8516H80.9841V10.258H81.4983V11.469C81.6913 11.0765 81.9785 10.769 82.3612 10.5472C82.7433 10.3261 83.1947 10.2149 83.7168 10.2149C84.4168 10.2149 84.9703 10.419 85.3772 10.8259Z" fill="white"/>
<path d="M88.1959 7.90091H88.7317V15.8516H88.1959V7.90091Z" fill="white"/>
<path d="M94.3297 15.1131C94.6686 14.9129 94.9368 14.6342 95.1331 14.277C95.3293 13.9198 95.4281 13.5129 95.4281 13.0556C95.4281 12.5983 95.3293 12.1914 95.1331 11.8342C94.9368 11.477 94.6686 11.1983 94.3297 10.9981C93.9902 10.7985 93.6061 10.6984 93.1776 10.6984C92.7491 10.6984 92.3651 10.7985 92.0256 10.9981C91.6867 11.1983 91.4184 11.477 91.2222 11.8342C91.0253 12.1914 90.9271 12.5983 90.9271 13.0556C90.9271 13.5129 91.0253 13.9198 91.2222 14.277C91.4184 14.6342 91.6867 14.9129 92.0256 15.1131C92.3651 15.3133 92.7491 15.4127 93.1776 15.4127C93.6061 15.4127 93.9902 15.3133 94.3297 15.1131ZM91.7469 15.5311C91.3223 15.2884 90.988 14.9508 90.7453 14.5184C90.5025 14.086 90.3809 13.5986 90.3809 13.0556C90.3809 12.5126 90.5025 12.0252 90.7453 11.5928C90.988 11.161 91.3223 10.8234 91.7469 10.58C92.1721 10.3373 92.649 10.2156 93.1776 10.2156C93.7062 10.2156 94.1831 10.3373 94.6084 10.58C95.033 10.8234 95.3673 11.161 95.61 11.5928C95.8527 12.0252 95.9744 12.5126 95.9744 13.0556C95.9744 13.5986 95.8527 14.086 95.61 14.5184C95.3673 14.9508 95.033 15.2884 94.6084 15.5311C94.1831 15.7738 93.7062 15.8955 93.1776 15.8955C92.649 15.8955 92.1721 15.7738 91.7469 15.5311Z" fill="white"/>
<path d="M100.384 15.1347C100.709 14.9201 100.954 14.6093 101.118 14.2024V13.1517H99.211C98.6608 13.1517 98.2624 13.2525 98.0158 13.452C97.7698 13.6522 97.6461 13.927 97.6461 14.277C97.6461 14.6414 97.7816 14.9292 98.0537 15.1399C98.3246 15.3505 98.7073 15.4559 99.1999 15.4559C99.6644 15.4559 100.059 15.3486 100.384 15.1347ZM101.096 10.7462C101.468 11.1001 101.654 11.6196 101.654 12.3058V15.8523H101.14V14.856C100.961 15.1844 100.7 15.4395 100.357 15.622C100.014 15.8039 99.6036 15.8955 99.1253 15.8955C98.5038 15.8955 98.0125 15.749 97.6514 15.4559C97.2909 15.1628 97.1104 14.7775 97.1104 14.2986C97.1104 13.8341 97.2765 13.4573 97.6089 13.1681C97.9412 12.8789 98.4711 12.7344 99.1999 12.7344H101.118V12.2843C101.118 11.7628 100.977 11.3664 100.695 11.0949C100.413 10.8234 100 10.6873 99.457 10.6873C99.0854 10.6873 98.7302 10.7521 98.3913 10.8803C98.0518 11.0092 97.7639 11.1806 97.5284 11.3945L97.2608 11.0092C97.5389 10.7586 97.8745 10.5643 98.2677 10.425C98.6608 10.2856 99.0717 10.2156 99.5002 10.2156C100.193 10.2156 100.725 10.3929 101.096 10.7462Z" fill="white"/>
<path d="M107.209 15.1131C107.549 14.9129 107.817 14.6342 108.013 14.277C108.21 13.9198 108.308 13.5129 108.308 13.0556C108.308 12.5983 108.21 12.1914 108.013 11.8342C107.817 11.477 107.549 11.1983 107.209 10.9981C106.87 10.7985 106.487 10.6984 106.057 10.6984C105.629 10.6984 105.245 10.7985 104.906 10.9981C104.566 11.1983 104.299 11.477 104.102 11.8342C103.906 12.1914 103.808 12.5983 103.808 13.0556C103.808 13.5129 103.906 13.9198 104.102 14.277C104.299 14.6342 104.566 14.9129 104.906 15.1131C105.245 15.3133 105.629 15.4127 106.057 15.4127C106.487 15.4127 106.87 15.3133 107.209 15.1131ZM108.844 7.90168V15.8523H108.319V14.5341C108.097 14.9705 107.786 15.3061 107.387 15.5416C106.986 15.7771 106.533 15.8955 106.025 15.8955C105.504 15.8955 105.033 15.7738 104.611 15.5311C104.19 15.2884 103.859 14.9521 103.62 14.5236C103.38 14.0951 103.261 13.6058 103.261 13.0556C103.261 12.5054 103.38 12.0147 103.62 11.5823C103.859 11.1498 104.19 10.8142 104.611 10.5748C105.033 10.3354 105.504 10.2156 106.025 10.2156C106.526 10.2156 106.974 10.334 107.37 10.5696C107.767 10.8051 108.08 11.1341 108.308 11.5555V7.90168H108.844Z" fill="white"/>
<path d="M117.197 15.1131C117.536 14.9129 117.804 14.6342 118.001 14.277C118.197 13.9198 118.295 13.5129 118.295 13.0556C118.295 12.5983 118.197 12.1914 118.001 11.8342C117.804 11.477 117.536 11.1983 117.197 10.9981C116.858 10.7985 116.474 10.6984 116.045 10.6984C115.616 10.6984 115.232 10.7985 114.893 10.9981C114.554 11.1983 114.286 11.477 114.089 11.8342C113.893 12.1914 113.795 12.5983 113.795 13.0556C113.795 13.5129 113.893 13.9198 114.089 14.277C114.286 14.6342 114.554 14.9129 114.893 15.1131C115.232 15.3133 115.616 15.4127 116.045 15.4127C116.474 15.4127 116.858 15.3133 117.197 15.1131ZM114.614 15.5311C114.189 15.2884 113.856 14.9508 113.613 14.5184C113.369 14.086 113.248 13.5986 113.248 13.0556C113.248 12.5126 113.369 12.0252 113.613 11.5928C113.856 11.161 114.189 10.8234 114.614 10.58C115.04 10.3373 115.516 10.2156 116.045 10.2156C116.574 10.2156 117.05 10.3373 117.475 10.58C117.901 10.8234 118.234 11.161 118.478 11.5928C118.72 12.0252 118.842 12.5126 118.842 13.0556C118.842 13.5986 118.72 14.086 118.478 14.5184C118.234 14.9508 117.901 15.2884 117.475 15.5311C117.05 15.7738 116.574 15.8955 116.045 15.8955C115.516 15.8955 115.04 15.7738 114.614 15.5311Z" fill="white"/>
<path d="M124.895 10.8259C125.302 11.2335 125.506 11.819 125.506 12.5831V15.8516H124.969V12.6263C124.969 11.9976 124.811 11.5187 124.493 11.1903C124.175 10.8619 123.73 10.6977 123.159 10.6977C122.502 10.6977 121.984 10.8939 121.605 11.2865C121.227 11.6796 121.037 12.2082 121.037 12.8729V15.8516H120.501V10.258H121.016V11.469C121.208 11.0765 121.496 10.769 121.878 10.5472C122.26 10.3261 122.712 10.2149 123.234 10.2149C123.934 10.2149 124.487 10.419 124.895 10.8259Z" fill="white"/>
<path d="M133.243 15.4984C133.107 15.6273 132.937 15.7254 132.734 15.7935C132.531 15.8615 132.318 15.8955 132.096 15.8955C131.611 15.8955 131.235 15.7614 130.972 15.4932C130.707 15.2256 130.574 14.852 130.574 14.3738V10.7194H129.546V10.2588H130.574V9.03739H131.11V10.2588H132.889V10.7194H131.11V14.3202C131.11 14.6846 131.198 14.9613 131.373 15.1504C131.548 15.3401 131.807 15.4343 132.15 15.4343C132.5 15.4343 132.789 15.3309 133.018 15.1235L133.243 15.4984Z" fill="white"/>
<path d="M139.125 10.8259C139.532 11.2335 139.736 11.819 139.736 12.5831V15.8516H139.2V12.6263C139.2 11.9976 139.041 11.5187 138.723 11.1903C138.405 10.8619 137.96 10.6977 137.389 10.6977C136.732 10.6977 136.214 10.8939 135.835 11.2865C135.457 11.6796 135.268 12.2082 135.268 12.8729V15.8516H134.732V7.90091H135.268V11.4258C135.46 11.0405 135.746 10.7422 136.125 10.5315C136.503 10.3208 136.95 10.2149 137.464 10.2149C138.164 10.2149 138.718 10.419 139.125 10.8259Z" fill="white"/>
<path d="M142.961 10.9497C142.647 11.125 142.395 11.3716 142.206 11.6896C142.017 12.0075 141.908 12.366 141.879 12.7664H146.166C146.144 12.366 146.037 12.0095 145.844 11.6948C145.652 11.3801 145.398 11.1341 145.084 10.9555C144.769 10.7769 144.415 10.6873 144.023 10.6873C143.629 10.6873 143.276 10.775 142.961 10.9497ZM146.68 13.1844H141.869C141.883 13.6202 141.994 14.0075 142.201 14.347C142.408 14.6859 142.689 14.9489 143.042 15.1347C143.396 15.3205 143.794 15.4127 144.237 15.4127C144.601 15.4127 144.938 15.3473 145.249 15.2145C145.56 15.083 145.819 14.888 146.026 14.6309L146.337 14.9842C146.094 15.2773 145.789 15.5023 145.421 15.6593C145.053 15.817 144.654 15.8955 144.226 15.8955C143.669 15.8955 143.172 15.7738 142.737 15.5311C142.301 15.2884 141.96 14.9521 141.713 14.5236C141.467 14.0951 141.344 13.6058 141.344 13.0556C141.344 12.5126 141.46 12.0252 141.692 11.5928C141.924 11.161 142.244 10.8234 142.651 10.58C143.058 10.3373 143.515 10.2156 144.023 10.2156C144.53 10.2156 144.985 10.3354 145.388 10.5748C145.792 10.8142 146.11 11.1479 146.342 11.5771C146.575 12.0056 146.69 12.4916 146.69 13.034L146.68 13.1844Z" fill="white"/>
<path d="M63.7304 30.5674L61.3138 24.9634L58.9148 30.5674H63.7304ZM64.5181 32.4352H58.1088L56.8454 35.4014H54.3916L60.1597 22.5834H62.5038L68.2903 35.4014H65.7997L64.5181 32.4352Z" fill="white"/>
<path d="M76.9426 32.7275C77.4856 32.1662 77.7577 31.4275 77.7577 30.5123C77.7577 29.5964 77.4856 28.8578 76.9426 28.2965C76.3996 27.7352 75.7068 27.4539 74.8641 27.4539C74.3153 27.4539 73.8207 27.5795 73.381 27.8294C72.9414 28.0799 72.594 28.4365 72.3376 28.9003C72.0811 29.3648 71.9529 29.9019 71.9529 30.5123C71.9529 31.1227 72.0811 31.6598 72.3376 32.1236C72.594 32.5875 72.9414 32.9447 73.381 33.1946C73.8207 33.4451 74.3153 33.5701 74.8641 33.5701C75.7068 33.5701 76.3996 33.2894 76.9426 32.7275ZM77.6753 26.1356C78.4263 26.5504 79.0151 27.1366 79.4423 27.8935C79.8695 28.6504 80.0835 29.5231 80.0835 30.5123C80.0835 31.5008 79.8695 32.3768 79.4423 33.1396C79.0151 33.9031 78.4263 34.4919 77.6753 34.9067C76.9243 35.3221 76.0731 35.5295 75.1206 35.5295C73.8024 35.5295 72.7582 35.0898 71.9895 34.2112V38.9536H69.7004V25.6227H71.8796V26.9043C72.2578 26.4405 72.7249 26.0931 73.2803 25.8608C73.8357 25.6293 74.4494 25.5128 75.1206 25.5128C76.0731 25.5128 76.9243 25.7208 77.6753 26.1356Z" fill="white"/>
<path d="M89.5045 32.7275C90.0475 32.1662 90.319 31.4275 90.319 30.5123C90.319 29.5964 90.0475 28.8578 89.5045 28.2965C88.9609 27.7352 88.2681 27.4539 87.4261 27.4539C86.8765 27.4539 86.3819 27.5795 85.9423 27.8294C85.5033 28.0799 85.1553 28.4365 84.8988 28.9003C84.6424 29.3648 84.5142 29.9019 84.5142 30.5123C84.5142 31.1227 84.6424 31.6598 84.8988 32.1236C85.1553 32.5875 85.5033 32.9447 85.9423 33.1946C86.3819 33.4451 86.8765 33.5701 87.4261 33.5701C88.2681 33.5701 88.9609 33.2894 89.5045 32.7275ZM90.2366 26.1356C90.9876 26.5504 91.5764 27.1366 92.0036 27.8935C92.4308 28.6504 92.6447 29.5231 92.6447 30.5123C92.6447 31.5008 92.4308 32.3768 92.0036 33.1396C91.5764 33.9031 90.9876 34.4919 90.2366 34.9067C89.4862 35.3221 88.6344 35.5295 87.6819 35.5295C86.3636 35.5295 85.3202 35.0898 84.5508 34.2112V38.9536H82.2617V25.6227H84.4409V26.9043C84.819 26.4405 85.2861 26.0931 85.8416 25.8608C86.397 25.6293 87.0107 25.5128 87.6819 25.5128C88.6344 25.5128 89.4862 25.7208 90.2366 26.1356Z" fill="white"/>
<path d="M101.205 35.1622C100.283 34.8815 99.5536 34.5093 99.0165 34.0454L99.8408 32.196C100.365 32.6108 101.009 32.9496 101.773 33.212C102.535 33.475 103.302 33.6058 104.07 33.6058C105.023 33.6058 105.734 33.4534 106.204 33.1479C106.673 32.843 106.909 32.44 106.909 31.9395C106.909 31.5732 106.777 31.2709 106.515 31.0328C106.253 30.7947 105.92 30.6089 105.517 30.4747C105.114 30.34 104.565 30.1875 103.869 30.0168C102.892 29.7852 102.102 29.553 101.498 29.3207C100.893 29.0891 100.375 28.726 99.9409 28.2315C99.5078 27.7369 99.2912 27.0683 99.2912 26.2263C99.2912 25.5184 99.4836 24.874 99.8683 24.2944C100.252 23.7148 100.832 23.2535 101.608 22.912C102.382 22.5699 103.332 22.3991 104.455 22.3991C105.236 22.3991 106.005 22.4966 106.762 22.6922C107.519 22.8872 108.172 23.1678 108.722 23.5342L107.971 25.3837C107.409 25.0539 106.823 24.804 106.213 24.6333C105.602 24.4625 105.01 24.3768 104.437 24.3768C103.497 24.3768 102.798 24.5351 102.34 24.8531C101.882 25.1704 101.654 25.5917 101.654 26.1164C101.654 26.4827 101.784 26.7817 102.047 27.0133C102.309 27.2455 102.642 27.4287 103.045 27.5628C103.448 27.6976 103.997 27.85 104.693 28.0208C105.646 28.2406 106.427 28.4696 107.037 28.7077C107.648 28.9452 108.169 29.3089 108.603 29.797C109.036 30.2857 109.253 30.9445 109.253 31.7747C109.253 32.4825 109.061 33.1237 108.676 33.6974C108.291 34.2711 107.708 34.7291 106.927 35.0706C106.145 35.4121 105.194 35.5835 104.07 35.5835C103.082 35.5835 102.127 35.4428 101.205 35.1622Z" fill="white"/>
<path d="M117.273 34.8699C117.005 35.0897 116.679 35.2545 116.294 35.3644C115.909 35.4743 115.504 35.5293 115.077 35.5293C114.002 35.5293 113.172 35.2486 112.586 34.6867C112 34.1254 111.707 33.3076 111.707 32.2334V27.527H110.095V25.6958H111.707V23.4617H113.996V25.6958H116.615V27.527H113.996V32.1784C113.996 32.654 114.112 33.0178 114.344 33.2677C114.576 33.5182 114.912 33.6432 115.351 33.6432C115.864 33.6432 116.291 33.5091 116.633 33.2402L117.273 34.8699Z" fill="white"/>
<path d="M125.313 32.7273C125.862 32.166 126.137 31.4274 126.137 30.5121C126.137 29.5962 125.862 28.8576 125.313 28.2963C124.764 27.735 124.068 27.4537 123.226 27.4537C122.383 27.4537 121.69 27.735 121.147 28.2963C120.604 28.8576 120.332 29.5962 120.332 30.5121C120.332 31.4274 120.604 32.166 121.147 32.7273C121.69 33.2893 122.383 33.5699 123.226 33.5699C124.068 33.5699 124.764 33.2893 125.313 32.7273ZM120.552 34.8882C119.759 34.461 119.139 33.8663 118.694 33.1028C118.248 32.34 118.025 31.4764 118.025 30.5121C118.025 29.5478 118.248 28.6869 118.694 27.93C119.139 27.173 119.759 26.581 120.552 26.1538C121.346 25.7266 122.237 25.5126 123.226 25.5126C124.226 25.5126 125.124 25.7266 125.917 26.1538C126.711 26.581 127.33 27.173 127.776 27.93C128.221 28.6869 128.445 29.5478 128.445 30.5121C128.445 31.4764 128.221 32.34 127.776 33.1028C127.33 33.8663 126.711 34.461 125.917 34.8882C125.124 35.316 124.226 35.5293 123.226 35.5293C122.237 35.5293 121.346 35.316 120.552 34.8882Z" fill="white"/>
<path d="M136.299 25.5129V27.6921C136.104 27.6555 135.926 27.6372 135.768 27.6372C134.876 27.6372 134.181 27.8969 133.68 28.4157C133.18 28.9345 132.929 29.6822 132.929 30.659V35.4014H130.64V25.6228H132.819V27.051C133.479 26.0258 134.639 25.5129 136.299 25.5129Z" fill="white"/>
<path d="M140.538 27.9941C140.032 28.4272 139.724 29.0042 139.614 29.7245H145.162C145.065 29.0166 144.765 28.4429 144.265 28.0032C143.764 27.5636 143.142 27.3438 142.398 27.3438C141.665 27.3438 141.045 27.561 140.538 27.9941ZM147.305 31.2442H139.632C139.766 31.9645 140.118 32.5356 140.685 32.9563C141.253 33.3776 141.958 33.5882 142.8 33.5882C143.874 33.5882 144.759 33.2343 145.455 32.5265L146.682 33.9363C146.243 34.461 145.687 34.8581 145.016 35.1263C144.345 35.3952 143.588 35.5293 142.745 35.5293C141.671 35.5293 140.725 35.316 139.907 34.8882C139.089 34.461 138.457 33.8663 138.012 33.1028C137.566 32.34 137.343 31.4764 137.343 30.5121C137.343 29.5596 137.56 28.7019 137.993 27.9391C138.427 27.1763 139.028 26.581 139.797 26.1538C140.566 25.7266 141.433 25.5126 142.398 25.5126C143.349 25.5126 144.201 25.7233 144.952 26.1446C145.703 26.5659 146.289 27.158 146.71 27.9208C147.131 28.6836 147.341 29.5661 147.341 30.5671C147.341 30.7254 147.329 30.9511 147.305 31.2442Z" fill="white"/>
</svg>
