<svg width="48" height="48" viewBox="0 0 48 48" fill="none" xmlns="http://www.w3.org/2000/svg">
<circle cx="24" cy="24" r="24" fill="#B05433"/>
<path fill-rule="evenodd" clip-rule="evenodd" d="M31.1964 22.1161C31.1964 21.8661 31.1161 21.6607 30.9554 21.5L29.7366 20.2946C29.567 20.125 29.3661 20.0402 29.1339 20.0402C28.9018 20.0402 28.7009 20.125 28.5312 20.2946L23.067 25.7455L20.0402 22.7188C19.8705 22.5491 19.6696 22.4643 19.4375 22.4643C19.2054 22.4643 19.0045 22.5491 18.8348 22.7188L17.6161 23.9241C17.4553 24.0848 17.375 24.2902 17.375 24.5402C17.375 24.7813 17.4553 24.9821 17.6161 25.1429L22.4643 29.9911C22.6339 30.1607 22.8348 30.2455 23.067 30.2455C23.308 30.2455 23.5134 30.1607 23.683 29.9911L30.9553 22.7188C31.1161 22.558 31.1964 22.3572 31.1964 22.1161L31.1964 22.1161ZM33.192 19.1295C34.1116 20.7009 34.5714 22.4196 34.5714 24.2857C34.5714 26.1518 34.1116 27.8728 33.192 29.4487C32.2723 31.0246 31.0246 32.2723 29.4487 33.192C27.8728 34.1116 26.1518 34.5714 24.2857 34.5714C22.4196 34.5714 20.6987 34.1116 19.1228 33.192C17.5469 32.2723 16.2991 31.0246 15.3795 29.4487C14.4598 27.8728 14 26.1518 14 24.2857C14 22.4196 14.4598 20.6987 15.3795 19.1228C16.2991 17.5469 17.5469 16.2991 19.1228 15.3795C20.6987 14.4598 22.4196 14 24.2857 14C26.1518 14 27.8728 14.4598 29.4487 15.3795C31.0246 16.2991 32.2723 17.5491 33.192 19.1295Z" fill="white"/>
</svg>
