<svg width="48" height="48" viewBox="0 0 48 48" fill="none" xmlns="http://www.w3.org/2000/svg">
<circle cx="24" cy="24" r="24" fill="#B05433"/>
<path fill-rule="evenodd" clip-rule="evenodd" d="M29.8884 32.6027C30.0581 32.433 30.1429 32.2321 30.1429 32C30.1429 31.7679 30.0581 31.567 29.8884 31.3973C29.7188 31.2277 29.5179 31.1429 29.2857 31.1429C29.0536 31.1429 28.8527 31.2277 28.6831 31.3973C28.5134 31.567 28.4286 31.7679 28.4286 32C28.4286 32.2321 28.5134 32.433 28.6831 32.6027C28.8527 32.7723 29.0536 32.8571 29.2857 32.8571C29.5179 32.8571 29.7188 32.7723 29.8884 32.6027ZM33.317 32.6027C33.4866 32.433 33.5715 32.2321 33.5715 32C33.5715 31.7679 33.4866 31.567 33.317 31.3973C33.1474 31.2277 32.9465 31.1429 32.7143 31.1429C32.4822 31.1429 32.2813 31.2277 32.1116 31.3973C31.942 31.567 31.8572 31.7679 31.8572 32C31.8572 32.2321 31.942 32.433 32.1116 32.6027C32.2813 32.7723 32.4822 32.8571 32.7143 32.8571C32.9465 32.8571 33.1474 32.7723 33.317 32.6027ZM35.2857 29V33.2857C35.2857 33.6429 35.1607 33.9464 34.9107 34.1964C34.6607 34.4464 34.3572 34.5714 34 34.5714H14.2857C13.9286 34.5714 13.625 34.4464 13.375 34.1964C13.125 33.9464 13 33.6429 13 33.2857V29C13 28.6429 13.125 28.3393 13.375 28.0893C13.625 27.8393 13.9286 27.7143 14.2857 27.7143H20.5134L22.3214 29.5357C22.8393 30.0357 23.4464 30.2857 24.1429 30.2857C24.8393 30.2857 25.4464 30.0357 25.9643 29.5357L27.7857 27.7143H34C34.3572 27.7143 34.6607 27.8393 34.9107 28.0893C35.1607 28.3393 35.2857 28.6429 35.2857 29H35.2857ZM30.9331 21.3795C31.0848 21.7455 31.0223 22.058 30.7456 22.317L24.7456 28.317C24.5849 28.4866 24.384 28.5714 24.1429 28.5714C23.9018 28.5714 23.7009 28.4866 23.5402 28.317L17.5402 22.317C17.2634 22.058 17.2009 21.7455 17.3527 21.3795C17.5045 21.0312 17.7679 20.8571 18.1429 20.8571H21.5715V14.8571C21.5715 14.625 21.6563 14.4241 21.8259 14.2545C21.9956 14.0848 22.1965 14 22.4286 14H25.8572C26.0893 14 26.2902 14.0848 26.4598 14.2545C26.6295 14.4241 26.7143 14.625 26.7143 14.8571V20.8571H30.1429C30.5179 20.8571 30.7813 21.0312 30.9331 21.3795H30.9331Z" fill="white"/>
</svg>
