<svg width="48" height="48" viewBox="0 0 48 48" fill="none" xmlns="http://www.w3.org/2000/svg">
<circle cx="24" cy="24" r="24" fill="#B05433"/>
<path fill-rule="evenodd" clip-rule="evenodd" d="M36 21.0804V31.7143C36 32.3036 35.7902 32.808 35.3706 33.2277C34.9509 33.6473 34.4465 33.8571 33.8572 33.8571H14.1429C13.5536 33.8571 13.0491 33.6473 12.6295 33.2277C12.2098 32.808 12 32.3036 12 31.7143V21.0804C12.3929 21.5179 12.8438 21.9063 13.3527 22.2455C16.5848 24.442 18.8036 25.9821 20.0089 26.8661C20.5179 27.2411 20.9308 27.5335 21.2478 27.7433C21.5647 27.9531 21.9866 28.1674 22.5134 28.3862C23.0402 28.6049 23.5312 28.7143 23.9866 28.7143H24H24.0134C24.4688 28.7143 24.9598 28.6049 25.4866 28.3862C26.0134 28.1674 26.4353 27.9531 26.7522 27.7433C27.0692 27.5335 27.4821 27.2411 27.9911 26.8661C29.5089 25.7679 31.7321 24.2277 34.6607 22.2455C35.1696 21.8973 35.6161 21.5089 36 21.0804H36ZM36 17.1429C36 17.8482 35.7813 18.5223 35.3438 19.1652C34.9063 19.808 34.3616 20.3571 33.7099 20.8125C30.3527 23.1429 28.2634 24.5938 27.442 25.1652C27.3527 25.2277 27.163 25.3638 26.8728 25.5737C26.5826 25.7835 26.3416 25.9531 26.1496 26.0826C25.9576 26.2121 25.7255 26.3571 25.4532 26.5179C25.1808 26.6786 24.9241 26.7991 24.6831 26.8795C24.442 26.9598 24.2188 27 24.0134 27H24H23.9866C23.7813 27 23.5581 26.9598 23.317 26.8795C23.0759 26.7991 22.8192 26.6786 22.5469 26.5179C22.2746 26.3571 22.0424 26.2121 21.8505 26.0826C21.6585 25.9531 21.4174 25.7835 21.1273 25.5737C20.8371 25.3638 20.6474 25.2277 20.5581 25.1652C19.7456 24.5938 18.5759 23.779 17.0491 22.721C15.5224 21.6629 14.6072 21.0268 14.3036 20.8125C13.75 20.4375 13.2277 19.9219 12.7366 19.2656C12.2456 18.6094 12 18 12 17.4375C12 16.7411 12.1853 16.1607 12.5558 15.6964C12.9264 15.2321 13.4554 15 14.1429 15H33.8572C34.4376 15 34.9398 15.2098 35.3639 15.6295C35.788 16.0491 36.0001 16.5536 36.0001 17.1429L36 17.1429Z" fill="white"/>
</svg>
