<svg width="183" height="48" viewBox="0 0 183 48" fill="none" xmlns="http://www.w3.org/2000/svg">
<path d="M175.479 48H7.056C3.15897 48 0 45.268 0 41.8981V6.10124C0 2.73136 3.15897 0 7.056 0H175.479C179.376 0 182.535 2.73136 182.535 6.10124V41.8981C182.535 45.268 179.376 48 175.479 48Z" fill="#2A2A2A"/>
<path d="M60.321 13.2815L58.3493 8.95194L56.3882 13.2815H60.321ZM60.5245 13.7421H56.1739L55.2202 15.8525H54.6309L58.081 8.35203H58.628L62.0782 15.8525H61.4888L60.5245 13.7421Z" fill="white"/>
<path d="M67.4796 10.2597L64.9504 15.8525H64.4042L61.8861 10.2597H62.454L64.6829 15.2638L66.9333 10.2597H67.4796Z" fill="white"/>
<path d="M71.2448 15.1337C71.57 14.9191 71.8146 14.6084 71.9788 14.2014V13.1514H70.0718C69.5216 13.1514 69.1232 13.2515 68.8772 13.4517C68.6306 13.6512 68.5076 13.9267 68.5076 14.2767C68.5076 14.6411 68.643 14.9283 68.9145 15.1389C69.186 15.3502 69.5681 15.4556 70.0613 15.4556C70.5252 15.4556 70.9197 15.3483 71.2448 15.1337ZM71.9579 10.7459C72.3288 11.0992 72.5146 11.6193 72.5146 12.3049V15.8513H72.0004V14.855C71.8218 15.1841 71.5615 15.4392 71.218 15.6211C70.8752 15.8036 70.4643 15.8945 69.9861 15.8945C69.3646 15.8945 68.8733 15.748 68.5128 15.4556C68.1517 15.1625 67.9718 14.7765 67.9718 14.2976C67.9718 13.8338 68.1373 13.4569 68.4697 13.1678C68.802 12.878 69.3326 12.7334 70.0613 12.7334H71.9788V12.2833C71.9788 11.7619 71.8382 11.3654 71.5556 11.0939C71.2736 10.8224 70.8608 10.687 70.3185 10.687C69.9469 10.687 69.591 10.7511 69.2521 10.88C68.9126 11.0082 68.6254 11.1796 68.3892 11.3942L68.1216 11.0082C68.4003 10.7583 68.7359 10.5634 69.1291 10.424C69.5216 10.2847 69.9325 10.2153 70.361 10.2153C71.0538 10.2153 71.5863 10.392 71.9579 10.7459Z" fill="white"/>
<path d="M74.7226 10.2597H75.2584V15.8525H74.7226V10.2597ZM74.68 8.77531C74.5943 8.69353 74.5511 8.59147 74.5511 8.46978C74.5511 8.34876 74.5943 8.24474 74.68 8.15903C74.7657 8.07333 74.8691 8.03081 74.9908 8.03081C75.1118 8.03081 75.2158 8.07203 75.3015 8.15381C75.3872 8.23624 75.4297 8.33764 75.4297 8.45932C75.4297 8.581 75.3872 8.68437 75.3015 8.77007C75.2158 8.85577 75.1118 8.89829 74.9908 8.89829C74.8691 8.89829 74.7657 8.85774 74.68 8.77531Z" fill="white"/>
<path d="M77.5192 7.90194H78.055V15.8525H77.5192V7.90194Z" fill="white"/>
<path d="M83.0859 15.1337C83.4111 14.9191 83.6557 14.6084 83.8199 14.2014V13.1514H81.9123C81.3621 13.1514 80.9643 13.2515 80.7177 13.4517C80.471 13.6512 80.3481 13.9267 80.3481 14.2767C80.3481 14.6411 80.4835 14.9283 80.755 15.1389C81.0265 15.3502 81.4092 15.4556 81.9018 15.4556C82.3663 15.4556 82.7608 15.3483 83.0859 15.1337ZM83.7984 10.7459C84.1699 11.0992 84.3557 11.6193 84.3557 12.3049V15.8513H83.8415V14.855C83.6629 15.1841 83.4019 15.4392 83.0591 15.6211C82.7163 15.8036 82.3055 15.8945 81.8266 15.8945C81.2051 15.8945 80.7138 15.748 80.3533 15.4556C79.9928 15.1625 79.8123 14.7765 79.8123 14.2976C79.8123 13.8338 79.9784 13.4569 80.3108 13.1678C80.6424 12.878 81.173 12.7334 81.9018 12.7334H83.8199V12.2833C83.8199 11.7619 83.6786 11.3654 83.3967 11.0939C83.1141 10.8224 82.7019 10.687 82.1589 10.687C81.7873 10.687 81.4321 10.7511 81.0925 10.88C80.7537 11.0082 80.4658 11.1796 80.2303 11.3942L79.9621 11.0082C80.2408 10.7583 80.5764 10.5634 80.9696 10.424C81.3621 10.2847 81.7729 10.2153 82.2021 10.2153C82.8949 10.2153 83.4268 10.392 83.7984 10.7459Z" fill="white"/>
<path d="M90.4957 15.1121C90.8385 14.9126 91.108 14.6339 91.3049 14.2767C91.5012 13.9195 91.5993 13.5126 91.5993 13.0546C91.5993 12.598 91.5012 12.1904 91.3049 11.8332C91.108 11.476 90.8385 11.198 90.4957 10.9978C90.1529 10.7976 89.7669 10.6975 89.3384 10.6975C88.9099 10.6975 88.5259 10.7976 88.1863 10.9978C87.8474 11.198 87.5792 11.476 87.383 11.8332C87.186 12.1904 87.0879 12.598 87.0879 13.0546C87.0879 13.5126 87.186 13.9195 87.383 14.2767C87.5792 14.6339 87.8474 14.9126 88.1863 15.1121C88.5259 15.3123 88.9099 15.4124 89.3384 15.4124C89.7669 15.4124 90.1529 15.3123 90.4957 15.1121ZM90.7848 10.5745C91.2062 10.8139 91.5365 11.1496 91.776 11.5813C92.0154 12.0138 92.1351 12.5051 92.1351 13.0546C92.1351 13.6048 92.0154 14.0941 91.776 14.5233C91.5365 14.9518 91.2062 15.2874 90.7848 15.5301C90.3635 15.7728 89.8918 15.8945 89.3704 15.8945C88.8706 15.8945 88.4186 15.7748 88.0149 15.5354C87.6113 15.2966 87.2986 14.9623 87.0774 14.5338V15.8513H86.5632V7.90075H87.099V11.5336C87.3201 11.1195 87.6309 10.7956 88.0313 10.5634C88.431 10.3318 88.8778 10.2153 89.3704 10.2153C89.8918 10.2153 90.3635 10.3351 90.7848 10.5745Z" fill="white"/>
<path d="M93.7964 7.90194H94.3322V15.8525H93.7964V7.90194Z" fill="white"/>
<path d="M97.5987 10.9494C97.284 11.1247 97.0328 11.3707 96.8431 11.6886C96.654 12.0066 96.5448 12.3657 96.5166 12.7654H100.802C100.781 12.3657 100.674 12.0085 100.481 11.6938C100.288 11.3798 100.034 11.1332 99.7203 10.9546C99.4056 10.776 99.0523 10.687 98.6598 10.687C98.2666 10.687 97.9127 10.7747 97.5987 10.9494ZM101.317 13.1835H96.5055C96.5199 13.6192 96.6305 14.0071 96.8378 14.346C97.0452 14.6856 97.3252 14.9479 97.6792 15.1337C98.0324 15.3195 98.4309 15.4124 98.8738 15.4124C99.2381 15.4124 99.5757 15.3463 99.8865 15.2142C100.197 15.082 100.456 14.887 100.664 14.6299L100.974 14.9839C100.731 15.277 100.426 15.502 100.058 15.659C99.6902 15.816 99.2918 15.8945 98.8633 15.8945C98.3059 15.8945 97.8094 15.7728 97.3736 15.5301C96.9379 15.2874 96.5971 14.9518 96.3505 14.5233C96.1038 14.0941 95.9808 13.6048 95.9808 13.0546C95.9808 12.5123 96.0966 12.0249 96.3289 11.5924C96.5611 11.16 96.881 10.8224 97.288 10.5797C97.6949 10.337 98.1522 10.2153 98.6598 10.2153C99.1668 10.2153 99.6222 10.3351 100.026 10.5745C100.429 10.8139 100.747 11.1476 100.98 11.5761C101.211 12.0046 101.328 12.4907 101.328 13.0337L101.317 13.1835Z" fill="white"/>
<path d="M109.081 15.1121C109.42 14.9126 109.688 14.6339 109.884 14.2767C110.081 13.9195 110.179 13.5126 110.179 13.0546C110.179 12.598 110.081 12.1904 109.884 11.8332C109.688 11.476 109.42 11.198 109.081 10.9978C108.741 10.7976 108.357 10.6975 107.929 10.6975C107.5 10.6975 107.116 10.7976 106.777 10.9978C106.438 11.198 106.169 11.476 105.973 11.8332C105.777 12.1904 105.679 12.598 105.679 13.0546C105.679 13.5126 105.777 13.9195 105.973 14.2767C106.169 14.6339 106.438 14.9126 106.777 15.1121C107.116 15.3123 107.5 15.4124 107.929 15.4124C108.357 15.4124 108.741 15.3123 109.081 15.1121ZM106.498 15.5301C106.073 15.2874 105.739 14.9499 105.496 14.5174C105.254 14.0856 105.132 13.5976 105.132 13.0546C105.132 12.5123 105.254 12.0249 105.496 11.5924C105.739 11.16 106.073 10.8224 106.498 10.5797C106.923 10.337 107.4 10.2153 107.929 10.2153C108.457 10.2153 108.934 10.337 109.359 10.5797C109.784 10.8224 110.118 11.16 110.361 11.5924C110.604 12.0249 110.725 12.5123 110.725 13.0546C110.725 13.5976 110.604 14.0856 110.361 14.5174C110.118 14.9499 109.784 15.2874 109.359 15.5301C108.934 15.7728 108.457 15.8945 107.929 15.8945C107.4 15.8945 106.923 15.7728 106.498 15.5301Z" fill="white"/>
<path d="M116.779 10.8276C117.187 11.2345 117.39 11.8206 117.39 12.5848V15.8525H116.854V12.6273C116.854 11.9992 116.696 11.5204 116.378 11.1919C116.06 10.8629 115.615 10.6987 115.044 10.6987C114.386 10.6987 113.869 10.8956 113.49 11.2881C113.111 11.6813 112.922 12.2099 112.922 12.8739V15.8525H112.386V10.2597H112.9V11.47C113.093 11.0775 113.381 10.77 113.763 10.5489C114.145 10.3277 114.597 10.2165 115.119 10.2165C115.819 10.2165 116.372 10.42 116.779 10.8276Z" fill="white"/>
<path d="M125.127 15.4981C124.992 15.627 124.822 15.7251 124.618 15.7925C124.415 15.8605 124.202 15.8945 123.981 15.8945C123.495 15.8945 123.12 15.7604 122.856 15.4928C122.591 15.2246 122.459 14.8517 122.459 14.3728V10.7191H121.431V10.2585H122.459V9.03645H122.995V10.2585H124.774V10.7191H122.995V14.3192C122.995 14.6836 123.083 14.9603 123.257 15.15C123.433 15.3391 123.692 15.434 124.034 15.434C124.384 15.434 124.674 15.3306 124.903 15.1232L125.127 15.4981Z" fill="white"/>
<path d="M131.01 10.8276C131.417 11.2345 131.621 11.8206 131.621 12.5848V15.8525H131.085V12.6273C131.085 11.9992 130.926 11.5204 130.608 11.1919C130.29 10.8629 129.846 10.6987 129.274 10.6987C128.616 10.6987 128.099 10.8956 127.72 11.2881C127.341 11.6813 127.152 12.2099 127.152 12.8739V15.8525H126.617V7.90194H127.152V11.4275C127.345 11.0415 127.631 10.7432 128.009 10.5325C128.388 10.3219 128.835 10.2165 129.349 10.2165C130.049 10.2165 130.603 10.42 131.01 10.8276Z" fill="white"/>
<path d="M134.846 10.9494C134.531 11.1247 134.28 11.3707 134.09 11.6886C133.901 12.0066 133.792 12.3657 133.764 12.7654H138.049C138.028 12.3657 137.921 12.0085 137.728 11.6938C137.535 11.3798 137.281 11.1332 136.967 10.9546C136.653 10.776 136.299 10.687 135.907 10.687C135.514 10.687 135.16 10.7747 134.846 10.9494ZM138.564 13.1835H133.753C133.767 13.6192 133.878 14.0071 134.085 14.346C134.292 14.6856 134.572 14.9479 134.926 15.1337C135.28 15.3195 135.678 15.4124 136.121 15.4124C136.485 15.4124 136.823 15.3463 137.134 15.2142C137.444 15.082 137.703 14.887 137.911 14.6299L138.221 14.9839C137.978 15.277 137.673 15.502 137.305 15.659C136.937 15.816 136.539 15.8945 136.11 15.8945C135.553 15.8945 135.056 15.7728 134.621 15.5301C134.185 15.2874 133.844 14.9518 133.598 14.5233C133.351 14.0941 133.228 13.6048 133.228 13.0546C133.228 12.5123 133.344 12.0249 133.576 11.5924C133.808 11.16 134.128 10.8224 134.535 10.5797C134.942 10.337 135.399 10.2153 135.907 10.2153C136.414 10.2153 136.869 10.3351 137.273 10.5745C137.677 10.8139 137.994 11.1476 138.227 11.5761C138.458 12.0046 138.575 12.4907 138.575 13.0337L138.564 13.1835Z" fill="white"/>
<path d="M63.167 28.9943H65.3677V33.9872C64.724 34.5001 63.9723 34.894 63.1133 35.1681C62.2544 35.4422 61.3712 35.5796 60.4644 35.5796C59.1874 35.5796 58.0367 35.3022 57.0106 34.7474C55.9844 34.1927 55.1791 33.4266 54.5947 32.4479C54.0099 31.4699 53.7178 30.3662 53.7178 29.1369C53.7178 27.9083 54.0099 26.8047 54.5947 25.8266C55.1791 24.8486 55.9875 24.0819 57.0196 23.5271C58.0511 22.9723 59.2116 22.6949 60.5004 22.6949C61.5498 22.6949 62.5049 22.8676 63.3639 23.2137C64.2229 23.5598 64.9445 24.0668 65.5293 24.7348L64.0613 26.1662C63.1068 25.2123 61.956 24.7348 60.6077 24.7348C59.7245 24.7348 58.9401 24.9199 58.2545 25.2895C57.5682 25.6598 57.0313 26.1786 56.6437 26.8466C56.2559 27.5145 56.0621 28.278 56.0621 29.1369C56.0621 29.9724 56.2559 30.724 56.6437 31.392C57.0313 32.0606 57.5682 32.5853 58.2545 32.9667C58.9401 33.3487 59.7186 33.5398 60.59 33.5398C61.5681 33.5398 62.4271 33.3245 63.167 32.8954V28.9943Z" fill="white"/>
<path d="M74.5487 32.788C75.0858 32.2391 75.354 31.5175 75.354 30.6226C75.354 29.7276 75.0858 29.006 74.5487 28.4571C74.0115 27.9083 73.3318 27.6341 72.5088 27.6341C71.6852 27.6341 71.0081 27.9083 70.4775 28.4571C69.9463 29.006 69.6813 29.7276 69.6813 30.6226C69.6813 31.5175 69.9463 32.2391 70.4775 32.788C71.0081 33.3369 71.6852 33.611 72.5088 33.611C73.3318 33.611 74.0115 33.3369 74.5487 32.788ZM69.8959 34.8998C69.12 34.4818 68.5149 33.9002 68.0792 33.1544C67.6435 32.4092 67.4263 31.5653 67.4263 30.6226C67.4263 29.6799 67.6435 28.8392 68.0792 28.0993C68.5149 27.3594 69.12 26.7811 69.8959 26.363C70.6711 25.9456 71.5419 25.7369 72.5088 25.7369C73.4869 25.7369 74.3635 25.9456 75.1394 26.363C75.9146 26.7811 76.5198 27.3594 76.9555 28.0993C77.3912 28.8392 77.609 29.6799 77.609 30.6226C77.609 31.5653 77.3912 32.4092 76.9555 33.1544C76.5198 33.9002 75.9146 34.4818 75.1394 34.8998C74.3635 35.3172 73.4869 35.5259 72.5088 35.5259C71.5419 35.5259 70.6711 35.3172 69.8959 34.8998Z" fill="white"/>
<path d="M86.0913 32.788C86.6277 32.2391 86.8966 31.5175 86.8966 30.6226C86.8966 29.7276 86.6277 29.006 86.0913 28.4571C85.5542 27.9083 84.8745 27.6341 84.0508 27.6341C83.2278 27.6341 82.5507 27.9083 82.0195 28.4571C81.4889 29.006 81.2233 29.7276 81.2233 30.6226C81.2233 31.5175 81.4889 32.2391 82.0195 32.788C82.5507 33.3369 83.2278 33.611 84.0508 33.611C84.8745 33.611 85.5542 33.3369 86.0913 32.788ZM81.4379 34.8998C80.6627 34.4818 80.0569 33.9002 79.6218 33.1544C79.1861 32.4092 78.9683 31.5653 78.9683 30.6226C78.9683 29.6799 79.1861 28.8392 79.6218 28.0993C80.0569 27.3594 80.6627 26.7811 81.4379 26.363C82.2138 25.9456 83.0846 25.7369 84.0508 25.7369C85.0289 25.7369 85.9062 25.9456 86.6814 26.363C87.4573 26.7811 88.0624 27.3594 88.4981 28.0993C88.9332 28.8392 89.151 29.6799 89.151 30.6226C89.151 31.5653 88.9332 32.4092 88.4981 33.1544C88.0624 33.9002 87.4573 34.4818 86.6814 34.8998C85.9062 35.3172 85.0289 35.5259 84.0508 35.5259C83.0846 35.5259 82.2138 35.3172 81.4379 34.8998Z" fill="white"/>
<path d="M97.7677 32.3135C98.3107 31.8065 98.5822 31.147 98.5822 30.3358C98.5822 29.537 98.3107 28.8861 97.7677 28.385C97.2247 27.8839 96.53 27.6339 95.6828 27.6339C94.8244 27.6339 94.1231 27.8839 93.5801 28.385C93.0371 28.8861 92.7663 29.537 92.7663 30.3358C92.7663 31.147 93.0371 31.8065 93.5801 32.3135C94.1231 32.8205 94.8244 33.0737 95.6828 33.0737C96.53 33.0737 97.2247 32.8205 97.7677 32.3135ZM100.784 25.844V33.951C100.784 37.3156 99.0657 38.9976 95.6291 38.9976C94.7106 38.9976 93.8398 38.8811 93.0169 38.6482C92.1932 38.416 91.5135 38.0784 90.9764 37.6375L91.9786 35.9555C92.396 36.3009 92.924 36.5783 93.5625 36.7876C94.2003 36.9957 94.848 37.1004 95.5042 37.1004C96.5542 37.1004 97.3235 36.8616 97.8129 36.3846C98.3016 35.9071 98.5462 35.1796 98.5462 34.2016V33.7004C98.1642 34.1178 97.699 34.4338 97.1508 34.649C96.6019 34.8636 95.9987 34.9709 95.3432 34.9709C94.4365 34.9709 93.6161 34.7773 92.8821 34.3893C92.1487 34.002 91.5697 33.4558 91.1465 32.7518C90.7232 32.0479 90.5112 31.2426 90.5112 30.3358C90.5112 29.4297 90.7232 28.627 91.1465 27.929C91.5697 27.2309 92.1487 26.6912 92.8821 26.3092C93.6161 25.9278 94.4365 25.7367 95.3432 25.7367C96.0347 25.7367 96.6641 25.8499 97.2313 26.0769C97.7978 26.3033 98.2715 26.6494 98.6535 27.1145V25.844H100.784Z" fill="white"/>
<path d="M103.717 22.1217H105.955V35.4009H103.717V22.1217Z" fill="white"/>
<path d="M111.225 28.1621C110.73 28.5854 110.429 29.1493 110.322 29.8532H115.744C115.648 29.1611 115.356 28.6004 114.867 28.1706C114.378 27.7414 113.769 27.5262 113.042 27.5262C112.326 27.5262 111.72 27.7382 111.225 28.1621ZM117.838 31.3383H110.339C110.471 32.0422 110.814 32.5996 111.368 33.0117C111.923 33.4232 112.612 33.6287 113.436 33.6287C114.485 33.6287 115.351 33.2832 116.03 32.5911L117.229 33.9689C116.8 34.4818 116.257 34.8697 115.601 35.132C114.945 35.395 114.205 35.5259 113.382 35.5259C112.332 35.5259 111.407 35.3172 110.608 34.8998C109.809 34.4818 109.191 33.9002 108.755 33.1544C108.32 32.4092 108.103 31.5653 108.103 30.6226C108.103 29.6916 108.315 28.8536 108.738 28.1084C109.161 27.3626 109.749 26.7811 110.501 26.363C111.252 25.9456 112.099 25.7369 113.042 25.7369C113.972 25.7369 114.804 25.943 115.538 26.3545C116.272 26.766 116.845 27.345 117.256 28.0901C117.668 28.8359 117.874 29.6982 117.874 30.6762C117.874 30.8313 117.861 31.0517 117.838 31.3383Z" fill="white"/>
<path d="M132.53 29.1728C133.054 28.7436 133.317 28.1293 133.317 27.3299C133.317 26.5305 133.054 25.9155 132.53 25.4863C132.004 25.0565 131.235 24.8419 130.221 24.8419H127.501V29.8172H130.221C131.235 29.8172 132.004 29.6026 132.53 29.1728ZM133.165 23.4105C133.97 23.7684 134.588 24.2813 135.017 24.9492C135.447 25.6178 135.661 26.4107 135.661 27.3299C135.661 28.2366 135.447 29.0269 135.017 29.7008C134.588 30.3752 133.97 30.8908 133.165 31.2486C132.36 31.6065 131.414 31.7857 130.328 31.7857H127.501V35.4009H125.174V22.8734H130.328C131.414 22.8734 132.36 23.0527 133.165 23.4105Z" fill="white"/>
<path d="M137.952 22.1217H140.189V35.4009H137.952V22.1217Z" fill="white"/>
<path d="M147.965 33.5129C148.401 33.2564 148.707 32.8894 148.887 32.4118V31.3023H146.578C145.289 31.3023 144.646 31.7262 144.646 32.5734C144.646 32.979 144.806 33.3009 145.128 33.5397C145.451 33.7785 145.898 33.8975 146.471 33.8975C147.031 33.8975 147.529 33.7693 147.965 33.5129ZM150.005 26.7477C150.751 27.4222 151.123 28.4388 151.123 29.7996V35.4009H149.012V34.2371C148.738 34.6551 148.346 34.9744 147.839 35.1948C147.332 35.4153 146.721 35.5259 146.006 35.5259C145.289 35.5259 144.663 35.4035 144.126 35.1589C143.59 34.9148 143.175 34.5747 142.882 34.139C142.59 33.7039 142.444 33.2113 142.444 32.6624C142.444 31.8034 142.763 31.1145 143.401 30.5958C144.04 30.0763 145.045 29.8172 146.417 29.8172H148.887V29.674C148.887 29.006 148.687 28.4931 148.287 28.1346C147.887 27.7768 147.294 27.5982 146.507 27.5982C145.97 27.5982 145.442 27.6819 144.923 27.8487C144.403 28.0156 143.965 28.2484 143.607 28.5468L142.731 26.9178C143.232 26.5364 143.834 26.2439 144.538 26.0411C145.241 25.8383 145.987 25.7369 146.775 25.7369C148.183 25.7369 149.259 26.0739 150.005 26.7477Z" fill="white"/>
<path d="M162.756 25.844L158.281 36.1701C157.864 37.2076 157.357 37.9384 156.76 38.3623C156.164 38.7856 155.442 38.9976 154.595 38.9976C154.117 38.9976 153.646 38.9197 153.181 38.7647C152.716 38.6096 152.334 38.395 152.036 38.1209L152.931 36.4743C153.145 36.6771 153.398 36.838 153.691 36.9571C153.983 37.0768 154.279 37.1363 154.577 37.1363C154.97 37.1363 155.296 37.0349 155.552 36.8321C155.808 36.6293 156.045 36.2891 156.259 35.8122L156.42 35.436L152.25 25.844H154.577L157.583 32.9128L160.608 25.844H162.756Z" fill="white"/>
<path d="M49.4189 23.3864L43.4052 19.9165L38.4596 24.6974L42.9796 29.0669L49.4189 25.3497C49.7733 25.1456 49.9852 24.7786 49.9852 24.369C49.9852 23.9588 49.7733 23.5918 49.4189 23.3864Z" fill="white"/>
<path d="M42.3843 19.3266L35.7664 15.5067L21.264 8.07486L37.6443 23.9087L42.3843 19.3266Z" fill="white"/>
<path d="M21.5054 41.0864L35.7919 33.2163L41.959 29.6567L37.645 25.4861L21.5054 41.0864Z" fill="white"/>
<path d="M20.2972 8.71609L20.2817 40.6938L36.8298 24.6971L20.2972 8.71609Z" fill="white"/>
</svg>
