<svg width="20" height="18" viewBox="0 0 20 18" fill="none" xmlns="http://www.w3.org/2000/svg">
<path fill-rule="evenodd" clip-rule="evenodd" d="M14.7774 16.2773C14.9258 16.1289 15 15.9531 15 15.75C15 15.5469 14.9258 15.3711 14.7774 15.2227C14.6289 15.0742 14.4531 15 14.25 15C14.0469 15 13.8711 15.0742 13.7227 15.2227C13.5742 15.3711 13.5 15.5469 13.5 15.75C13.5 15.9531 13.5742 16.1289 13.7227 16.2773C13.8711 16.4258 14.0469 16.5 14.25 16.5C14.4531 16.5 14.6289 16.4258 14.7774 16.2773ZM17.7774 16.2773C17.9258 16.1289 18 15.9531 18 15.75C18 15.5469 17.9258 15.3711 17.7774 15.2227C17.6289 15.0742 17.4532 15 17.25 15C17.0469 15 16.8711 15.0742 16.7227 15.2227C16.5743 15.3711 16.5 15.5469 16.5 15.75C16.5 15.9531 16.5743 16.1289 16.7227 16.2773C16.8711 16.4258 17.0469 16.5 17.25 16.5C17.4532 16.5 17.6289 16.4258 17.7774 16.2773ZM19.5 13.125V16.875C19.5 17.1875 19.3907 17.4531 19.1719 17.6719C18.9532 17.8906 18.6875 18 18.375 18H1.125C0.812498 18 0.546874 17.8906 0.328125 17.6719C0.109375 17.4531 0 17.1875 0 16.875V13.125C0 12.8125 0.109375 12.5469 0.328125 12.3281C0.546875 12.1094 0.812499 12 1.125 12H6.57422L8.15625 13.5938C8.60937 14.0313 9.14062 14.25 9.75 14.25C10.3594 14.25 10.8906 14.0313 11.3438 13.5938L12.9375 12H18.375C18.6875 12 18.9531 12.1094 19.1719 12.3281C19.3906 12.5469 19.5 12.8125 19.5 13.125H19.5ZM15.6915 6.45703C15.8243 6.77735 15.7696 7.05078 15.5274 7.27735L10.2774 12.5273C10.1368 12.6758 9.96099 12.75 9.75005 12.75C9.53911 12.75 9.36333 12.6758 9.2227 12.5273L3.9727 7.27735C3.73052 7.05079 3.67583 6.77735 3.80864 6.45703C3.94145 6.15234 4.17192 6 4.50005 6H7.50004V0.75C7.50004 0.546875 7.57426 0.371093 7.7227 0.222656C7.87114 0.0742187 8.04692 0 8.25004 0H11.25C11.4532 0 11.6289 0.0742187 11.7774 0.222656C11.9258 0.371093 12 0.546875 12 0.75V6H15C15.3282 6 15.5586 6.15234 15.6914 6.45703H15.6915Z" fill="#B05433"/>
</svg>
